<svg width="185" height="35" viewBox="0 0 185 35" fill="none" xmlns="http://www.w3.org/2000/svg">
<path d="M17.5 24.75H2.6V18H16.7C18.8 18 20.3333 17.6333 21.3 16.9C22.3 16.1333 22.8 14.7 22.8 12.6C22.8 10.5667 22.3 9.16667 21.3 8.4C20.3333 7.63333 18.8 7.25 16.7 7.25H2.6V0.499999H17.5C20.1 0.499999 22.35 0.983332 24.25 1.95C26.15 2.88333 27.6167 4.25 28.65 6.05C29.7167 7.85 30.25 10.0333 30.25 12.6C30.25 15.1667 29.7167 17.3667 28.65 19.2C27.6167 21 26.15 22.3833 24.25 23.35C22.35 24.2833 20.1 24.75 17.5 24.75ZM7.5 34H1.41561e-07V0.499999H7.5V34ZM58.2102 34H51.2102V28.05L50.8102 27.95V19.2C50.8102 17.5667 50.3935 16.4667 49.5602 15.9C48.7602 15.3333 47.3602 15.05 45.3602 15.05C43.4602 15.05 42.0935 15.3333 41.2602 15.9C40.4268 16.4667 40.0102 17.4667 40.0102 18.9V19.1H32.4602V18.95C32.4602 16.8833 33.0102 15.0667 34.1102 13.5C35.2102 11.9 36.7602 10.6667 38.7602 9.8C40.7935 8.9 43.1768 8.45 45.9102 8.45C48.7102 8.45 51.0102 8.9 52.8102 9.8C54.6435 10.7 55.9935 11.9667 56.8602 13.6C57.7602 15.2 58.2102 17.1 58.2102 19.3V34ZM40.6102 34.5C37.9102 34.5 35.7935 33.9 34.2602 32.7C32.7268 31.5 31.9602 29.8667 31.9602 27.8C31.9602 26.5333 32.2602 25.45 32.8602 24.55C33.4602 23.65 34.3602 22.9333 35.5602 22.4C36.7602 21.8333 38.2602 21.45 40.0602 21.25L51.3102 20.1V24.4L42.1102 25.45C41.2102 25.5167 40.5435 25.7 40.1102 26C39.7102 26.2667 39.5102 26.7 39.5102 27.3C39.5102 27.9667 39.7768 28.45 40.3102 28.75C40.8435 29.05 41.6602 29.2 42.7602 29.2C44.5602 29.2 46.0435 29.0333 47.2102 28.7C48.3768 28.3667 49.2602 27.8333 49.8602 27.1C50.4935 26.3333 50.8102 25.3167 50.8102 24.05L51.5102 24V28.25H50.8102C50.2435 30.1833 49.0935 31.7167 47.3602 32.85C45.6602 33.95 43.4102 34.5 40.6102 34.5ZM107.712 34H100.212V20.9C100.212 18.8333 99.7951 17.3667 98.9617 16.5C98.1284 15.6333 96.6284 15.2 94.4617 15.2C92.1951 15.2 90.6451 15.6833 89.8117 16.65C89.0117 17.6167 88.6117 19.1833 88.6117 21.35H87.6617L87.0617 16.65H88.5117C88.7117 15.2167 89.1451 13.8833 89.8117 12.65C90.5117 11.4167 91.5284 10.4167 92.8617 9.65C94.2284 8.85 95.9784 8.45 98.1117 8.45C100.278 8.45 102.062 8.88333 103.462 9.75C104.895 10.6167 105.962 11.8 106.662 13.3C107.362 14.8 107.712 16.5 107.712 18.4V34ZM69.5117 34H62.0117V8.95H68.9617V16.75L69.5117 17V34ZM88.6117 34H81.1117V20.9C81.1117 18.8333 80.6951 17.3667 79.8617 16.5C79.0284 15.6333 77.5284 15.2 75.3617 15.2C73.0617 15.2 71.5117 15.6833 70.7117 16.65C69.9117 17.6167 69.5117 19.1833 69.5117 21.35H68.5617L68.0117 16.55H69.3617C69.5951 15.15 70.0451 13.85 70.7117 12.65C71.3784 11.4167 72.3617 10.4167 73.6617 9.65C74.9617 8.85 76.6617 8.45 78.7617 8.45C80.9284 8.45 82.6951 8.9 84.0617 9.8C85.4617 10.7 86.4951 11.9 87.1617 13.4C87.8284 14.9 88.1617 16.5667 88.1617 18.4H88.6117V34ZM119.023 34H111.523V8.95H119.023V34ZM119.023 6.4H111.523V0.499999H119.023V6.4ZM140.599 34H134.399C131.466 34 129.166 33.2833 127.499 31.85C125.833 30.4167 124.999 28.1167 124.999 24.95V4.1H132.499V24.1C132.499 25.3667 132.766 26.2167 133.299 26.65C133.866 27.05 134.799 27.25 136.099 27.25H140.599V34ZM140.599 15.15H121.049V8.95H140.599V15.15ZM153.758 34.5C151.425 34.5 149.475 34.0667 147.908 33.2C146.375 32.3 145.225 31.1 144.458 29.6C143.725 28.1 143.358 26.4167 143.358 24.55V8.95H150.858V22.05C150.858 24.05 151.342 25.5167 152.308 26.45C153.275 27.35 154.942 27.8 157.308 27.8C159.775 27.8 161.492 27.3167 162.458 26.35C163.458 25.35 163.958 23.7833 163.958 21.65L164.908 21.6L165.458 26.35H164.058C163.858 27.75 163.358 29.0667 162.558 30.3C161.792 31.5333 160.675 32.55 159.208 33.35C157.775 34.1167 155.958 34.5 153.758 34.5ZM171.458 34H164.458V26.25L163.958 26V8.95H171.458V34Z" fill="black"/>
<path d="M184.443 34H174.793V25.25H184.443V34Z" fill="#8A2BE2"/>
<path d="M184.443 34H174.793V25.25H184.443V34Z" fill="black" fill-opacity="0.2"/>
</svg>
