<svg width="28" height="26" viewBox="0 0 28 26" fill="none" xmlns="http://www.w3.org/2000/svg">
<g clip-path="url(#clip0_177_262)">
<path d="M0.883583 6.0806C1.96858 5.8459 2.92258 5.5819 3.74358 5.28857C4.56458 4.99523 5.31258 4.62857 5.98758 4.18857C6.69158 3.74857 7.35158 3.2059 7.96758 2.56057C8.61258 1.91523 9.30258 1.12324 10.0356 0.18457H14.5676L13.2916 6.0806H16.7236L16.1516 9.0286H12.6756L10.8716 17.6086C10.7246 18.2832 10.6076 18.8846 10.5196 19.4126C10.4316 19.9406 10.3876 20.3512 10.3876 20.6446C10.3876 21.2312 10.5926 21.5979 11.0036 21.7446C11.4436 21.8912 12.2506 21.9646 13.4236 21.9646L12.7636 25.0006C12.5586 25.0592 12.2356 25.1032 11.7956 25.1326C11.3846 25.1619 10.9156 25.1912 10.3876 25.2206C9.88858 25.2792 9.36058 25.3086 8.80358 25.3086C8.27558 25.3379 7.80658 25.3526 7.39558 25.3526C6.66258 25.3526 5.94358 25.2939 5.23958 25.1766C4.53558 25.0886 3.90458 24.8979 3.34758 24.6046C2.79058 24.2819 2.33558 23.8272 1.98358 23.2406C1.66058 22.6539 1.49958 21.8619 1.49958 20.8646C1.49958 20.5126 1.51458 20.0726 1.54358 19.5446C1.60258 19.0166 1.70458 18.4299 1.85158 17.7846L3.69958 9.0286H0.267578L0.883583 6.0806Z" fill="white"/>
<path d="M27.6546 21.1287C27.6546 21.8033 27.5077 22.4047 27.2147 22.9327C26.9507 23.4607 26.5837 23.9007 26.1147 24.2527C25.6747 24.6047 25.1606 24.8687 24.5746 25.0447C23.9876 25.25 23.3717 25.3527 22.7267 25.3527C21.6117 25.3527 20.6587 25.0593 19.8667 24.4727C19.1037 23.8567 18.7227 22.9033 18.7227 21.6127C18.7227 20.938 18.8547 20.3367 19.1187 19.8087C19.3827 19.2807 19.7347 18.8407 20.1747 18.4887C20.6147 18.1367 21.1127 17.8727 21.6707 17.6967C22.2567 17.4913 22.8587 17.3887 23.4747 17.3887C24.6767 17.3887 25.6747 17.6967 26.4667 18.3127C27.2587 18.8993 27.6546 19.838 27.6546 21.1287Z" fill="#FF69B4"/>
</g>
<defs>
<clipPath id="clip0_177_262">
<rect width="28" height="26" fill="white"/>
</clipPath>
</defs>
</svg>
