<svg width="152" height="24" viewBox="0 0 152 24" fill="none" xmlns="http://www.w3.org/2000/svg">
<path d="M0 23.4104V0.032514H19.5087C20.224 0.032514 20.8743 0.216763 21.4595 0.58526C22.0665 0.93208 22.5433 1.39812 22.8902 1.98338C23.237 2.56864 23.4104 3.21893 23.4104 3.93425V10.7948C23.4104 11.5101 23.237 12.1604 22.8902 12.7457C22.5433 13.3309 22.0665 13.8078 21.4595 14.1763C20.8743 14.5231 20.224 14.6965 19.5087 14.6965H2.63367V23.4104H0ZM3.90173 12.0303H19.5087C19.8555 12.0303 20.1481 11.9111 20.3866 11.6727C20.6467 11.4342 20.7767 11.1416 20.7767 10.7948V3.93425C20.7767 3.58743 20.6467 3.2948 20.3866 3.05636C20.1481 2.79624 19.8555 2.66618 19.5087 2.66618H3.90173C3.55491 2.66618 3.25144 2.79624 2.99133 3.05636C2.75289 3.2948 2.63367 3.58743 2.63367 3.93425V10.7948C2.63367 11.1416 2.75289 11.4342 2.99133 11.6727C3.25144 11.9111 3.55491 12.0303 3.90173 12.0303Z" fill="white"/>
<path d="M26.102 23.4104V3.90173C26.102 3.18642 26.2754 2.53613 26.6222 1.95087C26.969 1.34393 27.4351 0.867052 28.0203 0.52023C28.6273 0.17341 29.2884 0 30.0037 0H45.6107C46.326 0 46.9763 0.17341 47.5615 0.52023C48.1685 0.867052 48.6453 1.34393 48.9922 1.95087C49.339 2.53613 49.5124 3.18642 49.5124 3.90173V23.4104H46.8787V14.8591H28.7357V23.4104H26.102ZM28.7357 12.2254H46.8787V3.90173C46.8787 3.55491 46.7487 3.26228 46.4885 3.02384C46.2501 2.76373 45.9575 2.63367 45.6107 2.63367H30.0037C29.6569 2.63367 29.3534 2.76373 29.0933 3.02384C28.8549 3.26228 28.7357 3.55491 28.7357 3.90173V12.2254Z" fill="white"/>
<path d="M53.4004 23.4104V0H57.0095L66.7313 11.5751L76.4531 0H80.0622V23.4104H77.4286V2.99133L66.7313 15.7045L56.0341 2.99133V23.4104H53.4004Z" fill="white"/>
<path d="M96.2582 23.4104V3.08792H83.9512V0H96.7642C97.9572 0 98.9244 0.967145 98.9244 2.16018V23.4104H96.2582Z" fill="white"/>
<path d="M113.217 23.4104V2.63367H102.812V0H126.223V2.63367H115.851V23.4104H113.217Z" fill="white"/>
<path d="M132.491 23.4104C131.776 23.4104 131.115 23.237 130.508 22.8902C129.923 22.5433 129.457 22.0773 129.11 21.492C128.763 20.8851 128.59 20.224 128.59 19.5087V0H131.223V19.5087C131.223 19.8555 131.342 20.159 131.581 20.4191C131.841 20.6575 132.145 20.7767 132.491 20.7767H148.098C148.445 20.7767 148.738 20.6575 148.976 20.4191C149.236 20.159 149.366 19.8555 149.366 19.5087V0H152V19.5087C152 20.224 151.827 20.8851 151.48 21.492C151.133 22.0773 150.656 22.5433 150.049 22.8902C149.464 23.237 148.814 23.4104 148.098 23.4104H132.491Z" fill="white"/>
</svg>
