<svg width="155" height="37" viewBox="0 0 155 37" fill="none" xmlns="http://www.w3.org/2000/svg">
<path d="M9.04924 36.3928H0.0732422L5.61724 10.0808H12.7892L13.5812 12.8968H13.8452C14.9012 11.7821 16.0746 10.9901 17.3652 10.5208C18.6852 10.0221 19.9759 9.77277 21.2372 9.77277C22.2639 9.77277 23.1146 9.9341 23.7892 10.2568C24.4932 10.5501 25.0506 10.9608 25.4612 11.4888C25.8719 12.0168 26.1652 12.6474 26.3412 13.3808C26.5172 14.1141 26.6052 14.8914 26.6052 15.7128C26.6052 16.1234 26.5759 16.7394 26.5172 17.5608C26.4586 18.3821 26.3266 19.3061 26.1212 20.3328C25.9159 21.3301 25.6226 22.3714 25.2412 23.4568C24.8599 24.5128 24.3466 25.4808 23.7012 26.3608C23.0852 27.2408 22.2932 27.9594 21.3252 28.5168C20.3866 29.0741 19.2572 29.3528 17.9372 29.3528C17.2039 29.3528 16.4852 29.2648 15.7812 29.0888C15.1066 28.9128 14.4906 28.6781 13.9332 28.3848C13.3759 28.0914 12.8772 27.7541 12.4372 27.3728C12.0266 26.9621 11.7186 26.5514 11.5132 26.1408H11.2492L9.04924 36.3928ZM13.7132 25.0848C14.4172 25.0848 15.0039 24.7181 15.4732 23.9848C15.9426 23.2221 16.3239 22.3421 16.6172 21.3448C16.9106 20.3181 17.1159 19.3061 17.2332 18.3088C17.3799 17.2821 17.4532 16.5194 17.4532 16.0208C17.4532 15.4341 17.3506 14.9501 17.1452 14.5688C16.9692 14.1874 16.6319 13.9968 16.1332 13.9968C15.5759 13.9968 15.0479 14.2021 14.5492 14.6128C14.0506 14.9941 13.6839 15.3314 13.4492 15.6248L11.7332 23.6768C11.9679 23.9994 12.2466 24.3221 12.5692 24.6448C12.8919 24.9381 13.2732 25.0848 13.7132 25.0848Z" fill="#8A2BE2"/>
<path d="M30.9606 11.7088C32.4566 10.9754 33.9819 10.4474 35.5366 10.1248C37.1206 9.77277 38.8806 9.59677 40.8166 9.59677C42.6939 9.59677 44.2486 9.74343 45.4806 10.0368C46.7126 10.3301 47.6952 10.7554 48.4286 11.3128C49.1619 11.8701 49.6752 12.5301 49.9686 13.2928C50.2619 14.0554 50.4086 14.9208 50.4086 15.8888C50.4086 16.4461 50.3646 17.0474 50.2766 17.6928C50.2179 18.3381 50.1446 18.8808 50.0566 19.3208L47.9886 29.0008H40.9046L40.1126 26.1848H39.8486C38.9099 27.2114 37.8099 28.0034 36.5486 28.5608C35.3166 29.0888 34.0846 29.3528 32.8526 29.3528C32.1486 29.3528 31.4592 29.2501 30.7846 29.0448C30.1099 28.8394 29.5086 28.5314 28.9806 28.1208C28.4526 27.6808 28.0272 27.1381 27.7046 26.4928C27.3819 25.8181 27.2206 25.0114 27.2206 24.0728C27.2206 22.5474 27.6312 21.3448 28.4526 20.4648C29.3032 19.5554 30.4032 18.8808 31.7526 18.4408C33.1312 17.9714 34.6712 17.6781 36.3726 17.5608C38.1032 17.4434 39.8339 17.3848 41.5646 17.3848C41.6232 17.0914 41.6966 16.6808 41.7846 16.1528C41.8726 15.5954 41.9166 15.1114 41.9166 14.7008C41.9166 14.1728 41.7699 13.6888 41.4766 13.2488C41.2126 12.7794 40.6406 12.5448 39.7606 12.5448C38.7339 12.5448 37.9712 12.8528 37.4726 13.4688C37.0032 14.0554 36.6952 14.7741 36.5486 15.6248H30.1246L30.9606 11.7088ZM41.0806 19.4528H40.2886C39.4379 19.4528 38.7046 19.5701 38.0886 19.8048C37.5019 20.0101 37.0179 20.2888 36.6366 20.6408C36.2846 20.9928 36.0206 21.3888 35.8446 21.8288C35.6686 22.2688 35.5806 22.7088 35.5806 23.1488C35.5806 23.8528 35.7566 24.3808 36.1086 24.7328C36.4899 25.0848 36.9299 25.2608 37.4286 25.2608C38.0446 25.2608 38.6459 25.0408 39.2326 24.6008C39.8486 24.1608 40.2299 23.5741 40.3766 22.8408L41.0806 19.4528Z" fill="#8A2BE2"/>
<path d="M63.8619 12.8968C64.4779 12.3101 65.1672 11.7674 65.9299 11.2688C66.6046 10.8581 67.4112 10.4768 68.3499 10.1248C69.2886 9.77277 70.3446 9.59677 71.5179 9.59677C72.9259 9.59677 73.9672 9.91943 74.6419 10.5648C75.3459 11.2101 75.7419 12.0021 75.8299 12.9408H76.0939C76.7686 12.3248 77.5019 11.7674 78.2939 11.2688C78.9686 10.8581 79.7606 10.4768 80.6699 10.1248C81.5792 9.77277 82.5472 9.59677 83.5739 9.59677C85.0992 9.59677 86.3312 10.0221 87.2699 10.8728C88.2379 11.6941 88.7219 12.7648 88.7219 14.0848C88.7219 14.7594 88.6046 15.6541 88.3699 16.7688C88.1352 17.8834 87.8712 19.1008 87.5779 20.4208L85.7299 29.0008H77.0619L79.4379 17.5168C79.5259 17.0768 79.6139 16.6514 79.7019 16.2408C79.7899 15.8301 79.8339 15.4928 79.8339 15.2288C79.8339 14.8181 79.7166 14.4808 79.4819 14.2168C79.2472 13.9234 78.9099 13.7768 78.4699 13.7768C77.9126 13.7768 77.3846 13.9821 76.8859 14.3928C76.4166 14.7741 76.0499 15.0968 75.7859 15.3608L72.9259 29.0008H64.6979L67.1179 17.5168C67.1766 17.1354 67.2499 16.7541 67.3379 16.3728C67.4259 15.9621 67.4699 15.5954 67.4699 15.2728C67.4699 14.8328 67.3526 14.4808 67.1179 14.2168C66.9126 13.9234 66.5899 13.7768 66.1499 13.7768C65.6219 13.7768 65.1086 13.9674 64.6099 14.3488C64.1406 14.7301 63.7739 15.0528 63.5099 15.3168L60.6059 29.0008H51.6299L55.6339 10.0808H62.8059L63.5979 12.8968H63.8619Z" fill="#8A2BE2"/>
<path d="M98.4603 29.0008H89.5283L93.5323 10.0808H102.552L98.4603 29.0008ZM103.696 4.31677C103.696 4.99143 103.55 5.5781 103.256 6.07677C102.992 6.57543 102.626 7.00077 102.156 7.35277C101.716 7.70477 101.203 7.96877 100.616 8.14477C100.03 8.32077 99.4283 8.40877 98.8123 8.40877C97.639 8.40877 96.6563 8.1301 95.8643 7.57277C95.0723 7.01543 94.6763 6.13543 94.6763 4.93277C94.6763 4.28743 94.8083 3.71544 95.0723 3.21677C95.3363 2.68877 95.6883 2.26343 96.1283 1.94077C96.5977 1.58877 97.1257 1.32477 97.7123 1.14877C98.3283 0.972766 98.959 0.884766 99.6043 0.884766C100.748 0.884766 101.716 1.16343 102.508 1.72077C103.3 2.2781 103.696 3.14343 103.696 4.31677Z" fill="#8A2BE2"/>
<path d="M104.883 10.0808C105.968 9.8461 106.922 9.5821 107.743 9.28877C108.564 8.99543 109.312 8.62877 109.987 8.18877C110.691 7.74877 111.351 7.2061 111.967 6.56077C112.612 5.91543 113.302 5.12344 114.035 4.18477H118.567L117.291 10.0808H120.723L120.151 13.0288H116.675L114.871 21.6088C114.724 22.2834 114.607 22.8848 114.519 23.4128C114.431 23.9408 114.387 24.3514 114.387 24.6448C114.387 25.2314 114.592 25.5981 115.003 25.7448C115.443 25.8914 116.25 25.9648 117.423 25.9648L116.763 29.0008C116.558 29.0594 116.235 29.1034 115.795 29.1328C115.384 29.1621 114.915 29.1914 114.387 29.2208C113.888 29.2794 113.36 29.3088 112.803 29.3088C112.275 29.3381 111.806 29.3528 111.395 29.3528C110.662 29.3528 109.943 29.2941 109.239 29.1768C108.535 29.0888 107.904 28.8981 107.347 28.6048C106.79 28.2821 106.335 27.8274 105.983 27.2408C105.66 26.6541 105.499 25.8621 105.499 24.8648C105.499 24.5128 105.514 24.0728 105.543 23.5448C105.602 23.0168 105.704 22.4301 105.851 21.7848L107.699 13.0288H104.267L104.883 10.0808Z" fill="#8A2BE2"/>
<path d="M136.501 10.0808H145.477L141.429 29.0008H134.301L133.509 26.1848H133.245C132.483 27.0941 131.441 27.8568 130.121 28.4728C128.831 29.0594 127.525 29.3528 126.205 29.3528C124.445 29.3528 123.067 28.9128 122.069 28.0328C121.072 27.1234 120.573 25.9501 120.573 24.5128C120.573 23.7794 120.691 22.8701 120.925 21.7848C121.189 20.6701 121.424 19.6288 121.629 18.6608L123.477 10.0808H132.409L130.209 20.3768C130.151 20.6114 130.092 20.8901 130.033 21.2128C129.975 21.5354 129.916 21.8581 129.857 22.1808C129.799 22.4741 129.74 22.7674 129.681 23.0608C129.652 23.3248 129.637 23.5448 129.637 23.7208C129.637 24.1608 129.725 24.5421 129.901 24.8648C130.107 25.1581 130.459 25.3048 130.957 25.3048C131.485 25.3048 131.984 25.1288 132.453 24.7768C132.923 24.4248 133.289 24.0874 133.553 23.7648L136.501 10.0808Z" fill="#8A2BE2"/>
<path d="M154.76 25.1288C154.76 25.8034 154.613 26.4048 154.32 26.9328C154.056 27.4608 153.689 27.9008 153.22 28.2528C152.78 28.6048 152.266 28.8688 151.68 29.0448C151.093 29.2501 150.477 29.3528 149.832 29.3528C148.717 29.3528 147.764 29.0594 146.972 28.4728C146.209 27.8568 145.828 26.9034 145.828 25.6128C145.828 24.9381 145.96 24.3368 146.224 23.8088C146.488 23.2808 146.84 22.8408 147.28 22.4888C147.72 22.1368 148.218 21.8728 148.776 21.6968C149.362 21.4914 149.964 21.3888 150.58 21.3888C151.782 21.3888 152.78 21.6968 153.572 22.3128C154.364 22.8994 154.76 23.8381 154.76 25.1288Z" fill="#8A2BE2"/>
<path d="M9.04924 36.3928H0.0732422L5.61724 10.0808H12.7892L13.5812 12.8968H13.8452C14.9012 11.7821 16.0746 10.9901 17.3652 10.5208C18.6852 10.0221 19.9759 9.77277 21.2372 9.77277C22.2639 9.77277 23.1146 9.9341 23.7892 10.2568C24.4932 10.5501 25.0506 10.9608 25.4612 11.4888C25.8719 12.0168 26.1652 12.6474 26.3412 13.3808C26.5172 14.1141 26.6052 14.8914 26.6052 15.7128C26.6052 16.1234 26.5759 16.7394 26.5172 17.5608C26.4586 18.3821 26.3266 19.3061 26.1212 20.3328C25.9159 21.3301 25.6226 22.3714 25.2412 23.4568C24.8599 24.5128 24.3466 25.4808 23.7012 26.3608C23.0852 27.2408 22.2932 27.9594 21.3252 28.5168C20.3866 29.0741 19.2572 29.3528 17.9372 29.3528C17.2039 29.3528 16.4852 29.2648 15.7812 29.0888C15.1066 28.9128 14.4906 28.6781 13.9332 28.3848C13.3759 28.0914 12.8772 27.7541 12.4372 27.3728C12.0266 26.9621 11.7186 26.5514 11.5132 26.1408H11.2492L9.04924 36.3928ZM13.7132 25.0848C14.4172 25.0848 15.0039 24.7181 15.4732 23.9848C15.9426 23.2221 16.3239 22.3421 16.6172 21.3448C16.9106 20.3181 17.1159 19.3061 17.2332 18.3088C17.3799 17.2821 17.4532 16.5194 17.4532 16.0208C17.4532 15.4341 17.3506 14.9501 17.1452 14.5688C16.9692 14.1874 16.6319 13.9968 16.1332 13.9968C15.5759 13.9968 15.0479 14.2021 14.5492 14.6128C14.0506 14.9941 13.6839 15.3314 13.4492 15.6248L11.7332 23.6768C11.9679 23.9994 12.2466 24.3221 12.5692 24.6448C12.8919 24.9381 13.2732 25.0848 13.7132 25.0848Z" fill="white"/>
<path d="M30.9606 11.7088C32.4566 10.9754 33.9819 10.4474 35.5366 10.1248C37.1206 9.77277 38.8806 9.59677 40.8166 9.59677C42.6939 9.59677 44.2486 9.74343 45.4806 10.0368C46.7126 10.3301 47.6952 10.7554 48.4286 11.3128C49.1619 11.8701 49.6752 12.5301 49.9686 13.2928C50.2619 14.0554 50.4086 14.9208 50.4086 15.8888C50.4086 16.4461 50.3646 17.0474 50.2766 17.6928C50.2179 18.3381 50.1446 18.8808 50.0566 19.3208L47.9886 29.0008H40.9046L40.1126 26.1848H39.8486C38.9099 27.2114 37.8099 28.0034 36.5486 28.5608C35.3166 29.0888 34.0846 29.3528 32.8526 29.3528C32.1486 29.3528 31.4592 29.2501 30.7846 29.0448C30.1099 28.8394 29.5086 28.5314 28.9806 28.1208C28.4526 27.6808 28.0272 27.1381 27.7046 26.4928C27.3819 25.8181 27.2206 25.0114 27.2206 24.0728C27.2206 22.5474 27.6312 21.3448 28.4526 20.4648C29.3032 19.5554 30.4032 18.8808 31.7526 18.4408C33.1312 17.9714 34.6712 17.6781 36.3726 17.5608C38.1032 17.4434 39.8339 17.3848 41.5646 17.3848C41.6232 17.0914 41.6966 16.6808 41.7846 16.1528C41.8726 15.5954 41.9166 15.1114 41.9166 14.7008C41.9166 14.1728 41.7699 13.6888 41.4766 13.2488C41.2126 12.7794 40.6406 12.5448 39.7606 12.5448C38.7339 12.5448 37.9712 12.8528 37.4726 13.4688C37.0032 14.0554 36.6952 14.7741 36.5486 15.6248H30.1246L30.9606 11.7088ZM41.0806 19.4528H40.2886C39.4379 19.4528 38.7046 19.5701 38.0886 19.8048C37.5019 20.0101 37.0179 20.2888 36.6366 20.6408C36.2846 20.9928 36.0206 21.3888 35.8446 21.8288C35.6686 22.2688 35.5806 22.7088 35.5806 23.1488C35.5806 23.8528 35.7566 24.3808 36.1086 24.7328C36.4899 25.0848 36.9299 25.2608 37.4286 25.2608C38.0446 25.2608 38.6459 25.0408 39.2326 24.6008C39.8486 24.1608 40.2299 23.5741 40.3766 22.8408L41.0806 19.4528Z" fill="white"/>
<path d="M63.8619 12.8968C64.4779 12.3101 65.1672 11.7674 65.9299 11.2688C66.6046 10.8581 67.4112 10.4768 68.3499 10.1248C69.2886 9.77277 70.3446 9.59677 71.5179 9.59677C72.9259 9.59677 73.9672 9.91943 74.6419 10.5648C75.3459 11.2101 75.7419 12.0021 75.8299 12.9408H76.0939C76.7686 12.3248 77.5019 11.7674 78.2939 11.2688C78.9686 10.8581 79.7606 10.4768 80.6699 10.1248C81.5792 9.77277 82.5472 9.59677 83.5739 9.59677C85.0992 9.59677 86.3312 10.0221 87.2699 10.8728C88.2379 11.6941 88.7219 12.7648 88.7219 14.0848C88.7219 14.7594 88.6046 15.6541 88.3699 16.7688C88.1352 17.8834 87.8712 19.1008 87.5779 20.4208L85.7299 29.0008H77.0619L79.4379 17.5168C79.5259 17.0768 79.6139 16.6514 79.7019 16.2408C79.7899 15.8301 79.8339 15.4928 79.8339 15.2288C79.8339 14.8181 79.7166 14.4808 79.4819 14.2168C79.2472 13.9234 78.9099 13.7768 78.4699 13.7768C77.9126 13.7768 77.3846 13.9821 76.8859 14.3928C76.4166 14.7741 76.0499 15.0968 75.7859 15.3608L72.9259 29.0008H64.6979L67.1179 17.5168C67.1766 17.1354 67.2499 16.7541 67.3379 16.3728C67.4259 15.9621 67.4699 15.5954 67.4699 15.2728C67.4699 14.8328 67.3526 14.4808 67.1179 14.2168C66.9126 13.9234 66.5899 13.7768 66.1499 13.7768C65.6219 13.7768 65.1086 13.9674 64.6099 14.3488C64.1406 14.7301 63.7739 15.0528 63.5099 15.3168L60.6059 29.0008H51.6299L55.6339 10.0808H62.8059L63.5979 12.8968H63.8619Z" fill="white"/>
<path d="M98.4603 29.0008H89.5283L93.5323 10.0808H102.552L98.4603 29.0008ZM103.696 4.31677C103.696 4.99143 103.55 5.5781 103.256 6.07677C102.992 6.57543 102.626 7.00077 102.156 7.35277C101.716 7.70477 101.203 7.96877 100.616 8.14477C100.03 8.32077 99.4283 8.40877 98.8123 8.40877C97.639 8.40877 96.6563 8.1301 95.8643 7.57277C95.0723 7.01543 94.6763 6.13543 94.6763 4.93277C94.6763 4.28743 94.8083 3.71544 95.0723 3.21677C95.3363 2.68877 95.6883 2.26343 96.1283 1.94077C96.5977 1.58877 97.1257 1.32477 97.7123 1.14877C98.3283 0.972766 98.959 0.884766 99.6043 0.884766C100.748 0.884766 101.716 1.16343 102.508 1.72077C103.3 2.2781 103.696 3.14343 103.696 4.31677Z" fill="white"/>
<path d="M104.883 10.0808C105.968 9.8461 106.922 9.5821 107.743 9.28877C108.564 8.99543 109.312 8.62877 109.987 8.18877C110.691 7.74877 111.351 7.2061 111.967 6.56077C112.612 5.91543 113.302 5.12344 114.035 4.18477H118.567L117.291 10.0808H120.723L120.151 13.0288H116.675L114.871 21.6088C114.724 22.2834 114.607 22.8848 114.519 23.4128C114.431 23.9408 114.387 24.3514 114.387 24.6448C114.387 25.2314 114.592 25.5981 115.003 25.7448C115.443 25.8914 116.25 25.9648 117.423 25.9648L116.763 29.0008C116.558 29.0594 116.235 29.1034 115.795 29.1328C115.384 29.1621 114.915 29.1914 114.387 29.2208C113.888 29.2794 113.36 29.3088 112.803 29.3088C112.275 29.3381 111.806 29.3528 111.395 29.3528C110.662 29.3528 109.943 29.2941 109.239 29.1768C108.535 29.0888 107.904 28.8981 107.347 28.6048C106.79 28.2821 106.335 27.8274 105.983 27.2408C105.66 26.6541 105.499 25.8621 105.499 24.8648C105.499 24.5128 105.514 24.0728 105.543 23.5448C105.602 23.0168 105.704 22.4301 105.851 21.7848L107.699 13.0288H104.267L104.883 10.0808Z" fill="white"/>
<path d="M136.501 10.0808H145.477L141.429 29.0008H134.301L133.509 26.1848H133.245C132.483 27.0941 131.441 27.8568 130.121 28.4728C128.831 29.0594 127.525 29.3528 126.205 29.3528C124.445 29.3528 123.067 28.9128 122.069 28.0328C121.072 27.1234 120.573 25.9501 120.573 24.5128C120.573 23.7794 120.691 22.8701 120.925 21.7848C121.189 20.6701 121.424 19.6288 121.629 18.6608L123.477 10.0808H132.409L130.209 20.3768C130.151 20.6114 130.092 20.8901 130.033 21.2128C129.975 21.5354 129.916 21.8581 129.857 22.1808C129.799 22.4741 129.74 22.7674 129.681 23.0608C129.652 23.3248 129.637 23.5448 129.637 23.7208C129.637 24.1608 129.725 24.5421 129.901 24.8648C130.107 25.1581 130.459 25.3048 130.957 25.3048C131.485 25.3048 131.984 25.1288 132.453 24.7768C132.923 24.4248 133.289 24.0874 133.553 23.7648L136.501 10.0808Z" fill="white"/>
</svg>
