<svg width="100" height="100" viewBox="0 0 100 100" fill="none" xmlns="http://www.w3.org/2000/svg">
<g clip-path="url(#clip0_462_25)">
<path d="M32.322 33.9355L37.6899 51.3104H27.0908L32.322 33.9355Z" fill="white"/>
<path d="M82.2913 1.25H17.7068C7.92783 1.25 0 9.17783 0 18.9587V81.0418C0 90.8228 7.92783 98.7506 17.7068 98.7506H82.2913C92.0722 98.7506 100 90.8228 100 81.0418V18.9587C100 9.17783 92.0722 1.25 82.2913 1.25ZM52.9856 70.0015H44.265C44.1151 70.0176 43.9643 69.9789 43.8408 69.8923C43.7172 69.8058 43.6293 69.6773 43.5933 69.5309L40.1722 59.584H24.6759L21.5223 69.3961C21.4797 69.575 21.3761 69.7333 21.2292 69.8438C21.0823 69.9543 20.9014 70.0101 20.7178 70.0015H12.87C12.4209 70.0015 12.2647 69.7554 12.3994 69.2634L25.8162 30.7821C25.951 30.3799 26.0857 29.9874 26.2185 29.4719C26.3942 28.5776 26.484 27.6676 26.4879 26.7557C26.4787 26.692 26.4844 26.6269 26.5046 26.5657C26.5248 26.5045 26.5591 26.4489 26.6045 26.4032C26.65 26.3575 26.7055 26.3231 26.7666 26.3026C26.8277 26.2821 26.8928 26.2761 26.9566 26.2851H37.624C37.9345 26.2851 38.1141 26.3965 38.159 26.621L53.3879 69.3297C53.5226 69.7769 53.3879 70.0015 52.9856 70.0015ZM85.6889 53.3901C85.6225 54.1946 85.5659 54.7765 85.521 55.1339C85.5039 55.2818 85.433 55.4184 85.3217 55.5174C85.2104 55.6164 85.0666 55.6711 84.9176 55.6708C84.6501 55.6708 84.1912 55.704 83.5429 55.7704C82.8927 55.8388 82.0882 55.8837 81.1275 55.9052C80.1648 55.9286 79.1475 55.7646 78.0755 55.7646H64.8598C65.0215 57.0723 65.4559 58.3316 66.1349 59.461C66.8847 60.5798 67.945 61.4527 69.1869 61.976C70.8686 62.7039 72.6876 63.0602 74.5196 63.0207C75.9724 62.9933 77.4213 62.8352 78.8468 62.5462C80.1218 62.3743 81.3696 62.0483 82.5666 61.5777C82.7892 61.398 82.9024 61.5093 82.9024 61.9116V68.2851C82.9142 68.4589 82.879 68.6326 82.8009 68.7889C82.7248 68.9099 82.6213 69.0134 82.5002 69.0896C81.1727 69.6773 79.7757 70.0933 78.343 70.3276C76.3981 70.6947 74.4201 70.8626 72.4401 70.8313C67.4276 70.8313 62.5146 69.3786 59.2244 65.3971C56.6332 62.2611 55.4675 57.9262 55.4675 53.8588C55.4694 49.4457 56.7953 44.98 59.6266 41.5492C62.6923 37.835 66.914 36.2848 71.6356 36.2848C75.6893 36.2848 79.8895 37.6477 82.5022 40.8794C84.6969 43.5916 85.7904 47.247 85.7904 50.7072C85.7904 51.6913 85.7553 52.5856 85.6889 53.3901ZM71.2997 43.5292C70.171 43.4608 69.0467 43.7223 68.0641 44.282C67.0814 44.8416 66.2829 45.6751 65.7658 46.6808C65.3057 47.6161 64.9997 48.6197 64.8598 49.6527H73.6468C74.7208 49.6527 75.5155 49.643 76.0291 49.6195C76.3727 49.5863 76.7047 49.475 77.0015 49.2973V48.8951C76.9878 48.3698 76.898 47.8504 76.734 47.3525C75.99 44.9995 73.7659 43.4335 71.2997 43.5292Z" fill="white"/>
</g>
<defs>
<clipPath id="clip0_462_25">
<rect width="100" height="100" fill="white"/>
</clipPath>
</defs>
</svg>
