<svg width="100" height="100" viewBox="0 0 100 100" fill="none" xmlns="http://www.w3.org/2000/svg">
<path d="M40.625 33.916H40.541L35.375 51.291H45.959L40.625 33.916ZM40.625 33.916H40.541L35.375 51.291H45.959L40.625 33.916ZM82.291 1.25H17.709C7.91602 1.25 0 9.16602 0 18.959V81.041C0 90.834 7.91602 98.75 17.709 98.75H82.291C92.084 98.75 100 90.834 100 81.041V18.959C100 9.16602 92.084 1.25 82.291 1.25ZM61.25 70.125H52.541C52.25 70.166 51.959 69.959 51.875 69.666L48.459 59.75H32.959L29.791 69.541C29.709 69.916 29.375 70.166 29 70.125H21.166C20.709 70.125 20.584 69.875 20.709 69.375L34.125 30.75C34.25 30.334 34.375 29.875 34.541 29.375C34.709 28.5 34.791 27.584 34.791 26.666C34.75 26.459 34.916 26.25 35.125 26.209H45.916C46.25 26.209 46.416 26.334 46.459 26.541L61.666 69.459C61.791 69.916 61.666 70.125 61.25 70.125ZM75.416 69.5C75.416 69.959 75.25 70.166 74.875 70.166H66.709C66.291 70.166 66.084 69.916 66.084 69.5V37.416C66.084 37 66.25 36.834 66.625 36.834H74.875C75.25 36.834 75.416 37.041 75.416 37.416V69.5ZM74.541 31.875C73.584 32.875 72.166 33.416 70.75 33.334C69.375 33.375 68.041 32.834 67.041 31.875C66.084 30.834 65.584 29.459 65.625 28.041C65.584 26.625 66.125 25.291 67.125 24.334C68.125 23.375 69.459 22.875 70.834 22.875C72.459 22.875 73.709 23.375 74.625 24.334C75.5477 25.344 76.0409 26.6736 76 28.041C76.041 29.459 75.541 30.834 74.541 31.875ZM40.541 33.916L35.375 51.291H45.959L40.625 33.916H40.541Z" fill="white"/>
</svg>
