<svg width="100" height="100" viewBox="0 0 100 100" fill="none" xmlns="http://www.w3.org/2000/svg">
<g clip-path="url(#clip0_462_48)">
<mask id="mask0_462_48" style="mask-type:alpha" maskUnits="userSpaceOnUse" x="0" y="0" width="100" height="100">
<path fill-rule="evenodd" clip-rule="evenodd" d="M52.1771 50C52.1771 45.0741 56.1842 41.0652 61.112 41.0652H61.3988C66.3266 41.0652 70.3336 45.0741 70.3336 50C70.3336 54.9278 66.3266 58.9348 61.3988 58.9348H61.112C56.1842 58.9348 52.1771 54.9278 52.1771 50ZM29.6664 27.778C29.6664 22.8521 33.6734 18.8432 38.6012 18.8432H47.8229V36.7128H38.6012C33.6734 36.7128 29.6664 32.7039 29.6664 27.778ZM29.6664 50C29.6664 45.0741 33.6734 41.0652 38.6012 41.0652H47.8229V58.9348H38.6012C33.6734 58.9348 29.6664 54.9278 29.6664 50ZM38.6715 81.1569C33.7066 81.1569 29.6664 77.1479 29.6664 72.222C29.6664 67.2961 33.6734 63.2872 38.6012 63.2872H47.8229V72.0776C47.8229 77.0835 43.7183 81.1569 38.6715 81.1569ZM10.8057 0H89.1943C95.1619 0 100 4.83808 100 10.8057V89.1943C100 95.1619 95.1619 100 89.1943 100H10.8057C4.83808 100 0 95.1619 0 89.1943V10.8057C0 4.83808 4.83808 0 10.8057 0ZM61.3988 63.2872C68.7261 63.2872 74.6859 57.3273 74.6859 50C74.6859 45.359 72.2942 41.2661 68.6773 38.89C72.2942 36.5139 74.6859 32.421 74.6859 27.778C74.6859 20.4506 68.7261 14.4908 61.3988 14.4908H38.6012C31.2739 14.4908 25.3141 20.4506 25.3141 27.778C25.3141 32.421 27.7058 36.5139 31.3227 38.89C27.7058 41.2661 25.3141 45.359 25.3141 50C25.3141 54.643 27.7058 58.7359 31.3227 61.112C27.7058 63.4862 25.3141 67.579 25.3141 72.222C25.3141 79.5494 31.3051 85.5092 38.6715 85.5092C46.1178 85.5092 52.1771 79.483 52.1771 72.0776V59.8264C54.5376 61.9743 57.6746 63.2872 61.112 63.2872H61.3988ZM61.3987 36.7128C66.3265 36.7128 70.3335 32.7038 70.3335 27.7779C70.3335 22.8521 66.3265 18.8431 61.3987 18.8431H52.177V36.7128H61.3987Z" fill="#B79E9E"/>
</mask>
<g mask="url(#mask0_462_48)">
<path d="M82.2917 0H17.7083C7.91766 0 0 8.12067 0 18.1623V81.8377C0 91.8793 7.91766 100 17.7083 100H82.2917C92.0823 100 100 91.8793 100 81.8377V18.1623C100 8.12067 92.0823 0 82.2917 0Z" fill="white"/>
</g>
</g>
<defs>
<clipPath id="clip0_462_48">
<rect width="100" height="100" fill="white"/>
</clipPath>
</defs>
</svg>
