<svg width="100" height="100" viewBox="0 0 100 100" fill="none" xmlns="http://www.w3.org/2000/svg">
<path d="M82.291 1.25H17.709C7.91602 1.25 0 9.16602 0 18.959V81.041C0 90.834 7.91602 98.75 17.709 98.75H82.291C92.084 98.75 100 90.834 100 81.041V18.959C100 9.16602 92.084 1.25 82.291 1.25ZM36.334 69.5C36.334 69.959 36.125 70.166 35.75 70.166H27.584C27.209 70.166 27.041 69.959 27.041 69.5V26.75C27.041 26.375 27.25 26.209 27.625 26.209H35.75C36 26.166 36.25 26.334 36.291 26.625C36.334 26.666 36.334 26.709 36.334 26.75V69.5ZM73.541 68.25C71.375 69.166 69.084 69.834 66.75 70.25C64.666 70.625 62.5 70.834 60.334 70.834C57.25 70.875 54.166 70.25 51.375 68.959C48.75 67.75 46.584 65.75 45.084 63.291C43.541 60.75 42.791 57.584 42.791 53.791C42.75 50.709 43.541 47.666 45.084 45C46.666 42.291 48.959 40.041 51.709 38.541C54.625 36.916 58.125 36.125 62.25 36.125C62.459 36.125 62.75 36.125 63.125 36.166C63.5 36.209 63.916 36.209 64.416 36.25V23.084C64.416 22.791 64.541 22.625 64.834 22.625H73.291C73.5 22.584 73.666 22.75 73.709 22.916V62.666C73.709 63.416 73.75 64.25 73.791 65.166C73.875 66.041 73.916 66.875 73.959 67.584C73.959 67.875 73.834 68.125 73.541 68.25ZM61.916 43.875C60.291 43.875 58.666 44.209 57.209 44.959C55.791 45.666 54.584 46.709 53.666 48.041C52.75 49.375 52.291 51.166 52.291 53.334C52.25 54.791 52.5 56.25 53 57.625C53.416 58.75 54.041 59.75 54.875 60.584C55.666 61.334 56.625 61.916 57.709 62.25C58.834 62.625 60 62.7912 61.166 62.7912C61.791 62.7912 62.375 62.7502 62.916 62.7092C63.459 62.7502 63.959 62.6662 64.416 62.5002V44.1662C64.041 44.0842 63.666 44.0002 63.291 43.9592C62.834 43.916 62.375 43.875 61.916 43.875Z" fill="white"/>
</svg>
