<svg width="100" height="100" viewBox="0 0 100 100" fill="none" xmlns="http://www.w3.org/2000/svg">
<g clip-path="url(#clip0_462_11)">
<path d="M45.2095 37.4577C45.8755 38.5846 46.2094 39.8756 46.1665 41.1665C46.1665 43.0004 45.7505 44.4164 44.8755 45.4593C43.9595 46.5003 42.7916 47.2913 41.4596 47.6663C39.9167 48.1663 38.2918 48.4163 36.6668 48.4163H34.4579C33.958 48.4163 33.417 48.3752 32.833 48.3342V34.3328C33.126 34.2918 33.708 34.2508 34.5419 34.2918C35.3329 34.2508 36.2919 34.2508 37.3758 34.2508C39.0847 34.2078 40.7507 34.4578 42.2916 35.0828C43.5006 35.5418 44.5005 36.3757 45.2095 37.4577Z" fill="white"/>
<path d="M82.2917 1.25H17.7083C7.91766 1.25 0 9.16766 0 18.9583V81.0418C0 90.8324 7.91766 98.7501 17.7083 98.7501H82.2917C92.0823 98.7501 100 90.8324 100 81.0418V18.9583C100 9.16766 92.0823 1.25 82.2917 1.25ZM52.7499 49.7911C49.045 54.9784 42.6819 56.2908 36.6665 56.2908C35.6666 56.2908 35.0006 56.2908 34.5826 56.2498C34.1666 56.2088 33.5827 56.2088 32.7917 56.2088V69.5833C32.8327 69.8743 32.6257 70.1243 32.3327 70.1672H24.251C23.917 70.1672 23.751 69.9993 23.751 69.6243V26.751C23.751 26.458 23.876 26.292 24.167 26.292C24.876 26.292 25.542 26.292 26.5009 26.251L37.0845 26.042C40.5004 26.042 43.3342 26.458 45.6662 27.333C49.5645 28.7958 52.8163 31.5359 54.2909 35.5006C55.9666 40.0004 55.5818 45.8283 52.7499 49.7911ZM81.1668 44.7913C81.1668 45.1252 80.9578 45.2502 80.4988 45.2502C78.9989 45.2092 77.4579 45.3342 75.999 45.6662C74.7955 45.9149 73.6221 46.292 72.4991 46.7912C71.7081 47.1662 70.9582 47.6662 70.3742 48.3341V69.5833C70.3742 69.9993 70.2082 70.1672 69.8332 70.1672H61.6245C61.2906 70.2082 60.9996 69.9993 60.9586 69.6672V46.4162C60.9586 45.4162 60.9586 44.3753 60.9156 43.2913C60.8746 42.2093 60.8746 41.1254 60.8336 40.0415C60.8336 39.0845 60.7496 38.1665 60.6656 37.2095C60.6246 37.0006 60.7496 36.7916 60.9586 36.7506C60.9586 36.7076 61.0406 36.7076 61.0836 36.7506H68.3743C68.7922 36.7506 69.1243 37.0416 69.2492 37.4166C69.3742 37.7505 69.4582 38.0845 69.4992 38.4595C69.5832 38.8755 69.6672 39.3345 69.7082 39.7505C69.7492 40.2094 69.7922 40.7094 69.7922 41.2504C71.0421 39.7915 72.5421 38.5845 74.2491 37.6665C76.1669 36.5826 78.3739 36.0416 80.5828 36.0416C80.8738 36.0006 81.1238 36.2076 81.1668 36.5006V44.7913Z" fill="white"/>
</g>
<defs>
<clipPath id="clip0_462_11">
<rect width="100" height="100" fill="white"/>
</clipPath>
</defs>
</svg>
