<svg width="100" height="100" viewBox="0 0 100 100" fill="none" xmlns="http://www.w3.org/2000/svg">
<path d="M43.926 37.4799C44.6059 38.5471 44.9607 39.8254 44.916 41.166C44.916 43 44.5 44.416 43.625 45.459C41.6937 47.7609 38.2719 48.416 35.416 48.416H33.209C32.709 48.416 32.166 48.375 31.584 48.334V34.334C31.875 34.291 32.459 34.25 33.291 34.291C34.084 34.25 35.041 34.25 36.125 34.25C38.9963 34.25 42.2742 34.8879 43.926 37.4799Z" fill="white"/>
<path d="M82.291 1.25H17.709C7.91602 1.25 0 9.16602 0 18.959V81.041C0 90.834 7.91602 98.75 17.709 98.75H82.291C92.084 98.75 100 90.834 100 81.041V18.959C100 9.16602 92.084 1.25 82.291 1.25ZM51.5 49.791C49.834 52.125 47.5 53.875 44.791 54.875C41.959 55.916 38.834 56.291 35.416 56.291C34.416 56.291 33.75 56.291 33.334 56.25C32.916 56.209 32.334 56.209 31.541 56.209V69.584C31.584 69.875 31.375 70.125 31.084 70.166H23C22.666 70.166 22.5 70 22.5 69.625V26.75C22.5 26.459 22.625 26.291 22.916 26.291C23.625 26.291 24.291 26.291 25.25 26.25C26.25 26.209 27.291 26.209 28.416 26.166C29.541 26.125 30.75 26.125 32.041 26.084C33.334 26.041 34.584 26.041 35.834 26.041C39.25 26.041 42.084 26.459 44.416 27.334C46.508 28.0438 48.4155 29.2107 50 30.75C51.334 32.084 52.375 33.709 53.041 35.5C53.666 37.25 54 39.041 54 40.916C54 44.5 53.166 47.459 51.5 49.791ZM81.041 66C79.875 67.666 78.25 68.959 76.375 69.709C74.334 70.584 71.834 71.041 68.834 71.041C66.916 71.041 65.041 70.875 63.166 70.5C61.6965 70.2456 60.2673 69.797 58.916 69.166C58.625 69 58.416 68.709 58.459 68.375V61.125C58.459 61 58.5 60.834 58.625 60.75C58.75 60.666 58.875 60.709 59 60.791C60.625 61.75 62.334 62.416 64.166 62.834C65.75 63.25 67.416 63.459 69.084 63.459C70.666 63.459 71.791 63.25 72.541 62.875C73.209 62.584 73.666 61.875 73.666 61.125C73.666 60.541 73.334 60 72.666 59.459C72 58.916 70.625 58.291 68.584 57.5C66.459 56.75 64.5 55.75 62.666 54.5C61.375 53.584 60.291 52.375 59.5 50.959C58.834 49.625 58.5 48.166 58.541 46.709C58.541 44.916 59.041 43.209 59.959 41.666C61 40 62.541 38.666 64.334 37.834C66.291 36.834 68.75 36.375 71.709 36.375C73.416 36.375 75.166 36.5 76.875 36.75C78.125 36.916 79.334 37.25 80.459 37.709C80.625 37.75 80.791 37.916 80.875 38.084C80.916 38.25 80.959 38.416 80.959 38.584V45.375C80.959 45.541 80.875 45.709 80.75 45.791C80.375 45.875 80.166 45.875 80 45.791C78.75 45.125 77.416 44.666 76 44.375C74.459 44.041 72.916 43.834 71.334 43.834C70.5 43.791 69.625 43.916 68.834 44.125C68.291 44.25 67.834 44.541 67.541 44.959C67.334 45.291 67.209 45.709 67.209 46.084C67.209 46.459 67.375 46.834 67.625 47.166C68 47.625 68.5 48 69.041 48.291C70 48.791 71 49.25 72 49.666C74.25 50.416 76.416 51.459 78.416 52.709C79.791 53.584 80.916 54.75 81.709 56.166C82.375 57.5 82.709 58.959 82.666 60.459C82.709 62.416 82.125 64.375 81.041 66Z" fill="white"/>
</svg>
