<svg width="100" height="100" viewBox="0 0 100 100" fill="none" xmlns="http://www.w3.org/2000/svg">
<path fill-rule="evenodd" clip-rule="evenodd" d="M17.708 0H82.292C92.082 0 100 8.12109 100 18.1621V81.8379C100 91.8789 92.082 100 82.292 100H17.708C7.91797 100 0 91.8789 0 81.8379V18.1621C0 8.12109 7.91797 0 17.708 0ZM65.5586 20L79.3564 25.5752L79.4287 74.2451L65.6299 79.8213L41.3252 56.2705L26.6416 67.4102L21.0713 64.625L21 35.1963L26.5703 32.4111L41.2539 43.5508L65.5586 20ZM34.9248 49.9102L28.0342 43.6777V56.1436L34.9961 49.9102H34.9248ZM50.3213 49.9102L64.1748 60.2891V39.5322L50.25 49.9102H50.3213Z" fill="white"/>
</svg>
